<svg xmlns="http://www.w3.org/2000/svg" version="1.1" xmlns:xlink="http://www.w3.org/1999/xlink" width="119.507" height="119.507"><svg xmlns="http://www.w3.org/2000/svg" version="1.1" xmlns:xlink="http://www.w3.org/1999/xlink" width="119.507" height="119.507"><svg version="1.1" id="Layer_1" x="0px" y="0px" width="119.507" viewBox="0 0 119.507 119.507" enable-background="new 0 0 160 169" xml:space="preserve" sodipodi:docname="file.svg" height="119.507" inkscape:export-filename="/home/rynest/Downloads/file.png" inkscape:export-xdpi="96" inkscape:export-ydpi="96" inkscape:version="1.1.2 (0a00cf5339, 2022-02-04)" xmlns:inkscape="http://www.inkscape.org/namespaces/inkscape" xmlns:sodipodi="http://sodipodi.sourceforge.net/DTD/sodipodi-0.dtd" xmlns="http://www.w3.org/2000/svg" xmlns:svg="http://www.w3.org/2000/svg"><defs id="defs11"></defs><sodipodi:namedview id="namedview9" pagecolor="#ffffff" bordercolor="#666666" borderopacity="1.0" inkscape:pageshadow="2" inkscape:pageopacity="0.0" inkscape:pagecheckerboard="0" showgrid="false" fit-margin-top="0" fit-margin-left="0" fit-margin-right="0" fit-margin-bottom="0" inkscape:zoom="1.2174556" inkscape:cx="269.82503" inkscape:cy="208.63183" inkscape:window-width="1920" inkscape:window-height="995" inkscape:window-x="0" inkscape:window-y="0" inkscape:window-maximized="1" inkscape:current-layer="Layer_1"></sodipodi:namedview>



<path fill="#3d83f6" opacity="1" stroke="none" d="m 67.566489,107.27009 c -1.02787,1.12474 -1.79275,2.007 -2.60052,2.84808 -3.98802,4.15256 -6.49314,4.21878 -10.38265,-0.0406 -12.58443,-13.781158 -25.10275,-27.622669 -37.64333,-41.443848 -4.81423,-5.30584 -9.5547204,-10.68057 -14.4536404,-15.9069 -2.96068997,-3.15856 -3.38508997,-6.15792 -0.68864,-9.75431 C 10.190669,31.778301 18.358629,20.413782 26.871599,9.3129822 c 1.20341,-1.569255 3.83042,-2.864475 5.81564,-2.888795 17.9968,-0.22049 35.99882,-0.23496 53.99497,0.01 2.11203,0.0288 4.88838,1.455155 6.18371,3.137075 8.433871,10.9508698 16.479771,22.1994288 24.794421,33.2438298 2.85801,3.7963 2.24943,6.81575 -0.80028,10.15371 C 100.4513,70.928501 84.148849,88.985312 67.566489,107.27008 M 41.476059,21.215831 c -1.5191,-1.264029 -3.0382,-2.528059 -4.5573,-3.792089 -0.62362,0.45472 -1.24724,0.90943 -1.87085,1.36414 4.53915,7.900399 9.0783,15.800799 13.90239,24.19711 -11.28259,0.87747 -21.70747,1.63464 -32.11656,2.56788 -1.25408,0.11243 -2.42268,1.17817 -3.6309,1.80206 1.09718,0.73073 2.14217,2.0005 3.29926,2.11254 22.81319,2.20891 45.60988,5.04767 68.5826,1.80848 6.084,-0.85785 12.25292,-1.10113 18.358231,-1.83221 1.03614,-0.12407 1.94717,-1.2929 2.916,-1.97906 -1.0057,-0.64808 -1.95167,-1.43873 -3.03817,-1.89395 -0.72003,-0.30167 -1.64369,-0.095 -2.47228,-0.16332 -9.712931,-0.80074 -19.425121,-1.61047 -29.958651,-2.48609 4.78553,-8.475121 9.20575,-16.303301 13.62598,-24.13148 -0.66965,-0.47207 -1.33929,-0.94414 -2.00893,-1.41622 -8.40594,6.872399 -14.79247,15.919759 -22.85168,23.42526 -6.16338,-6.626071 -11.93874,-12.835001 -18.17914,-19.583051 z" id="path4"></path></svg></svg><style>@media (prefers-color-scheme: light) { :root { filter: none; } }
@media (prefers-color-scheme: dark) { :root { filter: none; } }
</style></svg>